<svg xmlns="http://www.w3.org/2000/svg" viewBox="0 0 200.45 129.41"><defs><style>.cls-1{fill:#e8a048;}.cls-2{fill:#7ecab1;}.cls-3{fill:#0785a2;}.cls-4{fill:#7d903a;}</style></defs><title>podcast</title><g id="Layer_2" data-name="Layer 2"><g id="Layer_3" data-name="Layer 3"><polygon class="cls-1" points="49.91 79.56 0 79.56 0.07 29.65 49.91 79.56"></polygon><polygon class="cls-2" points="0.07 79.63 0.07 129.4 49.98 129.4 0.07 79.63"></polygon><rect class="cls-3" x="-5.43" y="35.13" width="99.85" height="88.72" transform="translate(-34.99 123.99) rotate(-90)"></rect><rect class="cls-1" x="-3.55" y="76.81" width="83.52" height="5.35" transform="translate(-41.29 117.69) rotate(-90)"></rect><rect class="cls-1" x="-16.59" y="76.81" width="83.52" height="5.35" transform="translate(-54.32 104.66) rotate(-90)"></rect><rect class="cls-1" x="-29.32" y="76.81" width="83.52" height="5.35" transform="translate(-67.05 91.93) rotate(-90)"></rect><rect class="cls-1" x="34.8" y="76.81" width="83.52" height="5.35" transform="translate(-2.93 156.05) rotate(-90)"></rect><rect class="cls-1" x="21.76" y="76.81" width="83.52" height="5.35" transform="translate(-15.97 143.01) rotate(-90)"></rect><rect class="cls-1" x="9.04" y="76.81" width="83.52" height="5.35" transform="translate(-28.69 130.28) rotate(-90)"></rect><path class="cls-2" d="M138.77,79.51h49.91a0,0,0,0,1,0,0v49.91a0,0,0,0,1,0,0h0a49.91,49.91,0,0,1-49.91-49.91v0A0,0,0,0,1,138.77,79.51Z" transform="translate(327.44 208.92) rotate(180)"></path><rect class="cls-4" x="150.54" width="49.91" height="49.91" rx="24.95" transform="translate(200.45 -150.54) rotate(90)"></rect><rect class="cls-1" x="112.01" y="100.96" width="3.61" height="28.46" transform="translate(227.63 230.37) rotate(180)"></rect><path class="cls-3" d="M113.81,107.55h0A25,25,0,0,0,89.12,128.9H138.5A25,25,0,0,0,113.81,107.55Z"></path><path class="cls-1" d="M89.12,125.81a25.21,25.21,0,0,0-.26,3.6h49.91a25.21,25.21,0,0,0-.27-3.6Z"></path><path class="cls-1" d="M101.62,54.56a4.14,4.14,0,1,1,0,8.28H88.86V71.2h12.76a4.15,4.15,0,1,1,0,8.29H88.86v0a25,25,0,0,0,49.91,0v0H126a4.15,4.15,0,1,1,0-8.29h12.76V62.84H126a4.14,4.14,0,1,1,0-8.28h12.76V46.2H126a4.15,4.15,0,1,1,0-8.29h12.76v0a25,25,0,0,0-49.91,0v0h12.76a4.15,4.15,0,0,1,0,8.29H88.86v8.36Z"></path><rect class="cls-2" x="59.83" y="95.89" width="7.38" height="7.38" rx="3.69"></rect><rect class="cls-2" x="47.1" y="78.37" width="7.38" height="7.38" rx="3.69"></rect><rect class="cls-2" x="72.87" y="50.91" width="7.38" height="7.38" rx="3.69"></rect><rect class="cls-2" x="34.51" y="65.4" width="7.38" height="7.38" rx="3.69"></rect><rect class="cls-2" x="21.26" y="85.75" width="7.38" height="7.38" rx="3.69"></rect><rect class="cls-2" x="8.75" y="102.32" width="7.38" height="7.38" rx="3.69"></rect></g></g></svg>