<svg xmlns="http://www.w3.org/2000/svg" xmlns:xlink="http://www.w3.org/1999/xlink" id="Layer_1" x="0px" y="0px" viewBox="0 0 700 350" style="enable-background:new 0 0 700 350;" xml:space="preserve">
<style type="text/css">
	.st0{fill:#0785A2;}
	.st1{fill:#7ECAB1;}
	.st2{fill:#E8A048;}
	.st3{fill:#7D903A;}
</style>
<path class="st0" d="M53.1,225l-15.9-12.2c-15.3,35-24.9,73-27.6,112.9l75.1-76.9L53.1,225z"></path>
<polygon class="st1" points="199.6,245.2 146.1,204.6 103.6,247.2 157,287.8 "></polygon>
<path class="st1" d="M136.4,197.2l-63-47.6c-11.7,16.2-22,33.4-30.7,51.5l51.2,38.6L136.4,197.2z"></path>
<polygon class="st2" points="209.2,252.5 166.6,295.1 232,344.1 331,344.1 "></polygon>
<polygon class="st0" points="157.5,304.2 116.2,345.5 210.9,344.1 "></polygon>
<path class="st2" d="M147.9,296.9l-53.4-40.6L44.8,306L8.9,341.8c0,0.8,0,1.7,0,2.5l90.5,1L147.9,296.9z"></path>
<path class="st0" d="M248,85.6l83.2-77.2c-42.4,2.4-82.6,12.4-119.5,28.9l12.5,16.8L248,85.6z"></path>
<polygon class="st1" points="286.9,157.9 246.3,104.5 203.7,147 244.3,200.5 "></polygon>
<path class="st1" d="M238.9,94.7l-39.2-51.9c-18,8.9-35.2,19.3-51.2,31.1l47.8,63.3L238.9,94.7z"></path>
<polygon class="st2" points="343.2,331.9 343.2,232.9 294.2,167.5 251.6,210.1 "></polygon>
<polygon class="st0" points="343.2,211.8 344.6,117.1 303.2,158.4 "></polygon>
<path class="st2" d="M255.4,95.4l40.6,53.4l48.5-48.5l-1-92.4c-0.2,0-0.4,0-0.6,0L305,45.7L255.4,95.4z"></path>
<path class="st0" d="M184.8,148.8L134.2,85c-4.5,3.7-9,7.5-13.3,11.5l-23.4,23.4c-4.7,5.2-9.2,10.5-13.5,15.9l62.5,51.4L184.8,148.8  z"></path>
<path class="st0" d="M97.5,119.9l23.4-23.4C112.7,103.9,104.9,111.7,97.5,119.9z"></path>
<polygon class="st3" points="231.6,213.2 192.3,158.5 156.6,194.1 211.6,233.2 "></polygon>
<polygon class="st3" points="220.8,240.9 313,314.9 239,222.7 "></polygon>
<path class="st0" d="M453,85.6l23.8-31.6l11.4-17.3c-36.6-16.1-76.5-26.1-118.5-28.4l0,0L453,85.6z"></path>
<polygon class="st1" points="497.3,147 454.7,104.5 414.1,157.9 456.7,200.5 "></polygon>
<path class="st1" d="M504.7,137.3l47.8-63.3c-16.1-11.8-33.2-22.2-51.2-31.1l-39.2,51.9L504.7,137.3z"></path>
<polygon class="st2" points="357.8,331.9 449.4,210.1 406.8,167.5 357.8,232.9 "></polygon>
<polygon class="st0" points="397.8,158.4 356.4,117.1 357.8,211.8 "></polygon>
<path class="st2" d="M405,148.8l40.6-53.4L396,45.7L358.2,7.9c-0.2,0-0.4,0-0.6,0l-1,92.4L405,148.8z"></path>
<path class="st0" d="M616.3,248.9l75.1,78.3c-2.6-40.4-12.2-78.9-27.7-114.3L647.9,225L616.3,248.9z"></path>
<polygon class="st1" points="544,287.8 597.4,247.2 554.9,204.6 501.4,245.2 "></polygon>
<path class="st1" d="M607.2,239.8l51.2-38.6c-8.7-18.1-19.1-35.3-30.7-51.5l-63,47.6L607.2,239.8z"></path>
<polygon class="st2" points="469,344.1 534.4,295.1 491.8,252.5 370,344.1 "></polygon>
<polygon class="st0" points="490.1,344.1 584.8,345.5 543.5,304.2 "></polygon>
<path class="st2" d="M606.5,256.3l-53.4,40.6l48.5,48.5l90.5-1c0-0.8,0-1.7,0-2.5L656.2,306L606.5,256.3z"></path>
<path class="st0" d="M553.1,185.7l63.6-50.4c-4.3-5.3-8.6-10.4-13.2-15.5l-23.4-23.4c-4.5-4.1-9.2-8.1-14-12l-51.5,62.8L553.1,185.7  z"></path>
<path class="st0" d="M580.1,96.5l23.4,23.4C596.1,111.7,588.3,103.9,580.1,96.5z"></path>
<polygon class="st3" points="488.7,232.5 543.4,193.2 507.8,157.5 468.7,212.5 "></polygon>
<polygon class="st3" points="387,313.9 479.2,239.9 461,221.7 "></polygon>
</svg>