<svg xmlns="http://www.w3.org/2000/svg" xmlns:xlink="http://www.w3.org/1999/xlink" id="Layer_1" x="0px" y="0px" viewBox="0 0 177.6 130.3" style="enable-background:new 0 0 177.6 130.3;" xml:space="preserve">
<style type="text/css">
	.st0{fill:#7ECAB1;}
	.st1{fill:#F3F1F0;}
	.st2{clip-path:url(#SVGID_2_);}
	.st3{fill:#E8A048;}
	.st4{fill:#F05E4A;}
	.st5{fill:#EF535D;}
	.st6{fill:#7D903A;}
	.st7{fill:#0785A2;}
</style>
<title>Asset 1</title>
<g id="Layer_2_1_">
	<g id="Layer_3">
		<polygon class="st0" points="172.5,19.1 172.5,0 153.4,0 153.4,8.2 135.5,8.2 135.5,0 135,0 116.5,0 116.4,0 116.4,8.2 98.1,8.2     98.1,0 98,0 79.7,0 79.5,0 79.5,8.2 61.2,8.2 61.2,0 61.1,0 42.7,0 42.2,0 42.2,8.2 24.2,8.2 24.2,0 5.2,0 5.2,19.1 13.3,19.1     13.3,37.5 5.2,37.5 5.2,56 13.3,56 13.3,74.4 5.2,74.4 5.2,92.8 13.3,92.8 13.3,111.3 5.2,111.3 5.2,130.3 24.2,130.3 24.2,122.1     42.2,122.1 42.2,130.3 42.7,130.3 61.1,130.3 61.2,130.3 61.2,122.1 79.5,122.1 79.5,130.3 79.7,130.3 98,130.3 98.1,130.3     98.1,122.1 116.4,122.1 116.4,130.3 116.5,130.3 135,130.3 135.5,130.3 135.5,122.1 153.4,122.1 153.4,130.3 172.5,130.3     172.5,111.3 164.3,111.3 164.3,92.8 172.5,92.8 172.5,74.4 164.3,74.4 164.3,56 172.5,56 172.5,37.5 164.3,37.5 164.3,19.1   "></polygon>
		<rect x="26.6" y="22.1" class="st1" width="124.5" height="86.1"></rect>
		<g>
			<defs>
				<rect id="SVGID_1_" x="26.6" y="22.1" width="124.5" height="86.1"></rect>
			</defs>
			<clipPath id="SVGID_2_">
				<use xlink:href="#SVGID_1_" style="overflow:visible;"></use>
			</clipPath>
			<g class="st2">
				<path class="st3" d="M175.6,75.3h-13.3c0,21.2-3.9,38.4-25.1,38.4h-52V75.2L175.6,75.3z"></path>
				<polygon class="st4" points="46.7,75.2 46.7,113.8 85.2,113.8     "></polygon>
				<polygon class="st3" points="20,10.9 -18.5,10.9 -18.5,49.3 32.8,126.3 85.2,76     "></polygon>
				<polygon class="st3" points="144.3,17 85.2,76 123.8,114.5 182.8,55.6 182.8,17     "></polygon>
				<polygon class="st5" points="46.7,114.5 123.8,114.5 85.2,76     "></polygon>
				<path class="st6" d="M46.7,113.8L46.7,113.8c0-21.3,17.3-38.5,38.6-38.5l0,0l0,0v38.5l0,0H46.7L46.7,113.8z"></path>
				<polygon class="st6" points="46.7,113.8 85.2,113.8 85.2,75.2     "></polygon>
				<path class="st7" d="M85.2,113.8V75.3l0,0l0,0c21.3,0,38.6,17.3,38.6,38.5v0l0,0l0,0H85.2L85.2,113.8z"></path>
				<circle class="st7" cx="85.2" cy="56.1" r="19.3"></circle>
			</g>
		</g>
	</g>
</g>
</svg>